<mxfile host="app.diagrams.net" agent="Mozilla/5.0 (Windows NT 10.0; Win64; x64) AppleWebKit/537.36 (KHTML, like Gecko) Chrome/133.0.0.0 Safari/537.36" version="26.0.16">
  <diagram name="Seite-1" id="ctml5CNwsNurJp002rPc">
    <mxGraphModel dx="1434" dy="772" grid="1" gridSize="10" guides="1" tooltips="1" connect="1" arrows="1" fold="1" page="1" pageScale="1" pageWidth="827" pageHeight="1169" math="0" shadow="0">
      <root>
        <mxCell id="0" />
        <mxCell id="1" parent="0" />
        <mxCell id="iHfEPOM8aUfeu7ROwiu2-6" value="Bed room" style="rounded=0;whiteSpace=wrap;html=1;" vertex="1" parent="1">
          <mxGeometry x="490" y="75" width="120" height="110" as="geometry" />
        </mxCell>
        <mxCell id="iHfEPOM8aUfeu7ROwiu2-1" value="Foyer" style="rounded=0;whiteSpace=wrap;html=1;" vertex="1" parent="1">
          <mxGeometry x="610" y="75" width="70" height="290" as="geometry" />
        </mxCell>
        <mxCell id="iHfEPOM8aUfeu7ROwiu2-2" value="Dining Room" style="rounded=0;whiteSpace=wrap;html=1;" vertex="1" parent="1">
          <mxGeometry x="680" y="75" width="120" height="170" as="geometry" />
        </mxCell>
        <mxCell id="iHfEPOM8aUfeu7ROwiu2-3" value="Library" style="rounded=0;whiteSpace=wrap;html=1;" vertex="1" parent="1">
          <mxGeometry x="490" y="185" width="120" height="140" as="geometry" />
        </mxCell>
        <mxCell id="iHfEPOM8aUfeu7ROwiu2-5" value="Main door" style="rounded=0;whiteSpace=wrap;html=1;" vertex="1" parent="1">
          <mxGeometry x="630" y="15" width="30" height="60" as="geometry" />
        </mxCell>
        <mxCell id="iHfEPOM8aUfeu7ROwiu2-8" value="&lt;h1 style=&quot;margin-top: 0px;&quot;&gt;3. Bed Room (F)&lt;/h1&gt;&lt;div&gt;&lt;ul&gt;&lt;li&gt;when entering: &quot;You are now in the bed room. Explore the items and choose one of them. Choose wisely, you can only save one&quot;&lt;/li&gt;&lt;li&gt;items:&lt;/li&gt;&lt;ul&gt;&lt;li&gt;garlic bulb/ wooden cross (explore. Do you want to pick up the item? YES/NO)&lt;/li&gt;&lt;li&gt;pistole&amp;nbsp;&amp;nbsp;(explore. Do you want to pick up the item? YES/NO)&lt;/li&gt;&lt;li&gt;writing machine&amp;nbsp;&amp;nbsp;(explore. Do you want to pick up the item? YES/NO)&lt;/li&gt;&lt;/ul&gt;&lt;/ul&gt;&lt;div&gt;&lt;br&gt;&lt;/div&gt;&lt;/div&gt;" style="text;html=1;whiteSpace=wrap;overflow=hidden;rounded=0;" vertex="1" parent="1">
          <mxGeometry x="70" y="810" width="470" height="180" as="geometry" />
        </mxCell>
        <mxCell id="iHfEPOM8aUfeu7ROwiu2-9" value="&lt;h1 style=&quot;margin-top: 0px;&quot;&gt;2. Library (A)&lt;/h1&gt;&lt;div&gt;- second room&lt;/div&gt;&lt;div&gt;- connections to bed room and basement&lt;/div&gt;&lt;div&gt;- player is asked if he wants to play a game/riddle&lt;/div&gt;&lt;div&gt;- if the riddle is won, player gets key to basement&lt;/div&gt;&lt;div&gt;&lt;br&gt;&lt;/div&gt;" style="text;html=1;whiteSpace=wrap;overflow=hidden;rounded=0;" vertex="1" parent="1">
          <mxGeometry x="71" y="670" width="180" height="120" as="geometry" />
        </mxCell>
        <mxCell id="iHfEPOM8aUfeu7ROwiu2-10" value="&lt;h1 style=&quot;margin-top: 0px;&quot;&gt;4. Basement (A)&lt;/h1&gt;&lt;div&gt;&lt;ul&gt;&lt;li&gt;monster is guarding the door to the kitchen&lt;/li&gt;&lt;li&gt;player is asked if he wants to enter a fight to pass the door to the kitchen&lt;/li&gt;&lt;li&gt;if yes: check for items in inventory&amp;nbsp;&lt;/li&gt;&lt;ul&gt;&lt;li&gt;None&lt;/li&gt;&lt;li&gt;item 1: no chance of winning: &quot;Your items do not prepare you for the fight. You better flee&quot;&amp;nbsp;&lt;/li&gt;&lt;li&gt;item 2: Random likelyhood of winning - do you want to proceed?&amp;nbsp;&lt;/li&gt;&lt;li&gt;item 3: 100 chance of winning&lt;/li&gt;&lt;/ul&gt;&lt;li&gt;if fight is lost --&amp;gt; go back to foyer&lt;/li&gt;&lt;/ul&gt;&lt;/div&gt;&lt;div&gt;&lt;span style=&quot;white-space: pre;&quot;&gt;&#x9;&lt;/span&gt;&lt;br&gt;&lt;/div&gt;" style="text;html=1;whiteSpace=wrap;overflow=hidden;rounded=0;" vertex="1" parent="1">
          <mxGeometry x="50" y="990" width="260" height="260" as="geometry" />
        </mxCell>
        <mxCell id="iHfEPOM8aUfeu7ROwiu2-11" value="&lt;h1 style=&quot;margin-top: 0px;&quot;&gt;Dining room (F)&lt;/h1&gt;&lt;div&gt;&lt;ul&gt;&lt;li&gt;ghost candle challenge&amp;nbsp;&lt;/li&gt;&lt;li&gt;items:&lt;/li&gt;&lt;ul&gt;&lt;li&gt;dinning table (when explored: &quot;On the long dining table, there are 3 candle holders. Do you want to light them up?&lt;/li&gt;&lt;ul&gt;&lt;li&gt;yes&lt;/li&gt;&lt;ul&gt;&lt;li&gt;&quot;In what order do you set them up? (From 1-3, example input:. 1, 2, 3) You have three trials.&lt;/li&gt;&lt;ul&gt;&lt;li&gt;player inputs&amp;nbsp;&lt;/li&gt;&lt;ul&gt;&lt;li&gt;if correct: &quot;The wall moves, and a hidden door appears! Do you want to enter it?&quot;&lt;/li&gt;&lt;ul&gt;&lt;li&gt;&lt;span style=&quot;background-color: transparent; color: light-dark(rgb(0, 0, 0), rgb(255, 255, 255));&quot;&gt;yes: Player gets back to foyer&lt;/span&gt;&lt;/li&gt;&lt;li&gt;&lt;span style=&quot;background-color: transparent; color: light-dark(rgb(0, 0, 0), rgb(255, 255, 255));&quot;&gt;no: Player stays in the dinning room&lt;/span&gt;&lt;/li&gt;&lt;/ul&gt;&lt;li&gt;if incorrect --&amp;gt; &quot;Try again&quot;, prompt asking for input&lt;/li&gt;&lt;ul&gt;&lt;li&gt;if correct: &quot;The wall moves, and a hidden door appears!&quot;&lt;/li&gt;&lt;li&gt;if incorrect: &quot;Try again&quot;, prompt asking for input&lt;/li&gt;&lt;ul&gt;&lt;li&gt;if correct &quot;The wall moves, and a hidden door appears! Do you want to enter it?&amp;nbsp;&lt;/li&gt;&lt;ul&gt;&lt;li&gt;yes: Player gets back to foyer&lt;/li&gt;&lt;li&gt;no: Player stays in the dinning room&lt;/li&gt;&lt;/ul&gt;&lt;li&gt;if incorrect: &quot;Your three attempts are used up, unfortunately, you have to start over.&quot; --&amp;gt; send player back to foyer?&lt;/li&gt;&lt;/ul&gt;&lt;/ul&gt;&lt;/ul&gt;&lt;/ul&gt;&lt;/ul&gt;&lt;li&gt;no --&amp;gt; player stays in dinning room&lt;/li&gt;&lt;li&gt;Correct answer: [2, 1, 3]&amp;nbsp;&lt;/li&gt;&lt;/ul&gt;&lt;li&gt;mural (when explored: picture is displayed of old woman who lived here ages ago)&lt;/li&gt;&lt;li&gt;fire place (when explored: &quot;Fire crackles&quot;&lt;/li&gt;&lt;/ul&gt;&lt;li&gt;each item can be explored&lt;/li&gt;&lt;/ul&gt;&lt;/div&gt;&lt;div&gt;&lt;br&gt;&lt;/div&gt;" style="text;html=1;whiteSpace=wrap;overflow=hidden;rounded=0;" vertex="1" parent="1">
          <mxGeometry x="70" y="1430" width="720" height="390" as="geometry" />
        </mxCell>
        <mxCell id="iHfEPOM8aUfeu7ROwiu2-12" value="&lt;h1 style=&quot;margin-top: 0px;&quot;&gt;Kitchen (A)&lt;/h1&gt;" style="text;html=1;whiteSpace=wrap;overflow=hidden;rounded=0;" vertex="1" parent="1">
          <mxGeometry x="60" y="1270" width="180" height="120" as="geometry" />
        </mxCell>
        <mxCell id="iHfEPOM8aUfeu7ROwiu2-13" value="&lt;h1 style=&quot;margin-top: 0px;&quot;&gt;1. Foyer (F)&lt;/h1&gt;&lt;div&gt;&lt;ul&gt;&lt;li&gt;first room, does not have any visible doors to other rooms&lt;/li&gt;&lt;li&gt;&lt;span class=&quot;hljs-built_in&quot;&gt;print&lt;/span&gt;(&lt;span class=&quot;hljs-string&quot;&gt;&quot;You step into the grand foyer. The main door slams shut behind you with a deafening thud.&quot;&lt;/span&gt;)&lt;/li&gt;&lt;li&gt;&lt;span class=&quot;hljs-built_in&quot;&gt;print&lt;/span&gt;(&lt;span class=&quot;hljs-string&quot;&gt;&quot;The only way out is finding the key... but where could it be? You look around and see several items. Explore/ examin&quot;&lt;/span&gt;)&lt;/li&gt;&lt;/ul&gt;&lt;ul&gt;&lt;ul&gt;&lt;li&gt;&lt;span class=&quot;hljs-keyword&quot;&gt;if&lt;/span&gt; player_explores(&lt;span class=&quot;hljs-string&quot;&gt;&quot;mirrors&quot;&lt;/span&gt;):&lt;/li&gt;&lt;ul&gt;&lt;li&gt;&lt;span class=&quot;hljs-built_in&quot;&gt;print&lt;/span&gt;(&lt;span class=&quot;hljs-string&quot;&gt;&quot;You stand before the tall, dusty mirrors lining the walls.&quot;&lt;/span&gt;)&lt;/li&gt;&lt;li&gt;&lt;span class=&quot;hljs-built_in&quot;&gt;print&lt;/span&gt;(&lt;span class=&quot;hljs-string&quot;&gt;&quot;As you gaze into your reflection, the room behind you seems to shift...&quot;&lt;/span&gt;)&lt;/li&gt;&lt;li&gt;&lt;span class=&quot;hljs-built_in&quot;&gt;print&lt;/span&gt;(&lt;span class=&quot;hljs-string&quot;&gt;&quot;A whisper echoes: &#39;Only the true self can pass. Solve the riddle to proceed!&#39;&quot;&lt;/span&gt;)&lt;/li&gt;&lt;li&gt;    start_mirror_challenge()  &lt;span class=&quot;hljs-comment&quot;&gt;# Hier wird die Spiegel-Challenge gestartet&lt;/span&gt;&lt;/li&gt;&lt;/ul&gt;&lt;li&gt;&lt;span class=&quot;hljs-keyword&quot;&gt;if&lt;/span&gt; player_explores(&lt;span class=&quot;hljs-string&quot;&gt;&quot;rug&quot;&lt;/span&gt;):&lt;/li&gt;&lt;ul&gt;&lt;li&gt;&lt;span class=&quot;hljs-built_in&quot;&gt;print&lt;/span&gt;(&lt;span class=&quot;hljs-string&quot;&gt;&quot;You inspect the long, elegant rug stretching across the floor.&quot;&lt;/span&gt;)&lt;/li&gt;&lt;li&gt;&lt;span class=&quot;hljs-built_in&quot;&gt;print&lt;/span&gt;(&lt;span class=&quot;hljs-string&quot;&gt;&quot;Nothing unusual… just an old, dusty carpet.&quot;&lt;/span&gt;&lt;/li&gt;&lt;/ul&gt;&lt;li&gt;&lt;span class=&quot;hljs-keyword&quot;&gt;if&lt;/span&gt; player_explores(&lt;span class=&quot;hljs-string&quot;&gt;&quot;chandelier&quot;&lt;/span&gt;):&lt;/li&gt;&lt;ul&gt;&lt;li&gt;&lt;span class=&quot;hljs-built_in&quot;&gt;print&lt;/span&gt;(&lt;span class=&quot;hljs-string&quot;&gt;&quot;You look up at the massive chandelier above you.&quot;&lt;/span&gt;)&lt;/li&gt;&lt;li&gt;&lt;span class=&quot;hljs-built_in&quot;&gt;print&lt;/span&gt;(&lt;span class=&quot;hljs-string&quot;&gt;&quot;It sways slightly, as if moved by an unseen force…&quot;&lt;/span&gt;)&lt;/li&gt;&lt;li&gt;&lt;span class=&quot;hljs-built_in&quot;&gt;print&lt;/span&gt;(&lt;span class=&quot;hljs-string&quot;&gt;&quot;But nothing else happens.&quot;&lt;/span&gt;)&lt;/li&gt;&lt;/ul&gt;&lt;li&gt;&lt;span class=&quot;hljs-keyword&quot;&gt;if&lt;/span&gt; mirror_challenge_solved:&lt;/li&gt;&lt;ul&gt;&lt;li&gt;&lt;span class=&quot;hljs-built_in&quot;&gt;print&lt;/span&gt;(&lt;span class=&quot;hljs-string&quot;&gt;&quot;The largest mirror shimmers, revealing a hidden compartment. You want to go through it? YES/NO&quot;&lt;/span&gt;)&lt;/li&gt;&lt;/ul&gt;&lt;/ul&gt;&lt;/ul&gt;&lt;/div&gt;" style="text;html=1;whiteSpace=wrap;overflow=hidden;rounded=0;" vertex="1" parent="1">
          <mxGeometry x="35" y="50" width="445" height="430" as="geometry" />
        </mxCell>
        <mxCell id="iHfEPOM8aUfeu7ROwiu2-4" value="Kitchen" style="rounded=0;whiteSpace=wrap;html=1;" vertex="1" parent="1">
          <mxGeometry x="680" y="245" width="120" height="120" as="geometry" />
        </mxCell>
        <mxCell id="iHfEPOM8aUfeu7ROwiu2-24" value="connection" style="rounded=0;whiteSpace=wrap;html=1;fillColor=#d5e8d4;strokeColor=#82b366;" vertex="1" parent="1">
          <mxGeometry x="540" y="167" width="15" height="30" as="geometry" />
        </mxCell>
        <mxCell id="iHfEPOM8aUfeu7ROwiu2-28" value="connection" style="rounded=0;whiteSpace=wrap;html=1;fillColor=#d5e8d4;strokeColor=#82b366;" vertex="1" parent="1">
          <mxGeometry x="730" y="225" width="15" height="30" as="geometry" />
        </mxCell>
        <mxCell id="iHfEPOM8aUfeu7ROwiu2-29" style="edgeStyle=orthogonalEdgeStyle;rounded=0;orthogonalLoop=1;jettySize=auto;html=1;exitX=0;exitY=0.5;exitDx=0;exitDy=0;entryX=0.467;entryY=0.533;entryDx=0;entryDy=0;entryPerimeter=0;" edge="1" parent="1" source="iHfEPOM8aUfeu7ROwiu2-28" target="iHfEPOM8aUfeu7ROwiu2-28">
          <mxGeometry relative="1" as="geometry" />
        </mxCell>
        <mxCell id="iHfEPOM8aUfeu7ROwiu2-31" value="hidden connection" style="rounded=0;whiteSpace=wrap;html=1;fillColor=#f8cecc;strokeColor=#b85450;" vertex="1" parent="1">
          <mxGeometry x="611" y="240" width="15" height="30" as="geometry" />
        </mxCell>
        <mxCell id="iHfEPOM8aUfeu7ROwiu2-7" value="Basement" style="rounded=0;whiteSpace=wrap;html=1;" vertex="1" parent="1">
          <mxGeometry x="490" y="325" width="190" height="40" as="geometry" />
        </mxCell>
        <mxCell id="iHfEPOM8aUfeu7ROwiu2-30" value="connection" style="rounded=0;whiteSpace=wrap;html=1;fillColor=#d5e8d4;strokeColor=#82b366;" vertex="1" parent="1">
          <mxGeometry x="670" y="330" width="15" height="30" as="geometry" />
        </mxCell>
        <mxCell id="iHfEPOM8aUfeu7ROwiu2-26" value="connection" style="rounded=0;whiteSpace=wrap;html=1;fillColor=#d5e8d4;strokeColor=#82b366;" vertex="1" parent="1">
          <mxGeometry x="542.5" y="305" width="15" height="30" as="geometry" />
        </mxCell>
        <mxCell id="iHfEPOM8aUfeu7ROwiu2-34" value="" style="endArrow=classic;html=1;rounded=0;" edge="1" parent="1">
          <mxGeometry width="50" height="50" relative="1" as="geometry">
            <mxPoint x="620" y="254" as="sourcePoint" />
            <mxPoint x="590" y="254" as="targetPoint" />
          </mxGeometry>
        </mxCell>
        <mxCell id="iHfEPOM8aUfeu7ROwiu2-35" value="hidden connection" style="rounded=0;whiteSpace=wrap;html=1;fillColor=#f8cecc;strokeColor=#b85450;" vertex="1" parent="1">
          <mxGeometry x="680" y="115" width="15" height="30" as="geometry" />
        </mxCell>
        <mxCell id="iHfEPOM8aUfeu7ROwiu2-36" value="" style="endArrow=classic;html=1;rounded=0;exitX=0;exitY=0.5;exitDx=0;exitDy=0;" edge="1" parent="1" source="iHfEPOM8aUfeu7ROwiu2-35" target="iHfEPOM8aUfeu7ROwiu2-1">
          <mxGeometry width="50" height="50" relative="1" as="geometry">
            <mxPoint x="630" y="264" as="sourcePoint" />
            <mxPoint x="600" y="264" as="targetPoint" />
          </mxGeometry>
        </mxCell>
        <mxCell id="iHfEPOM8aUfeu7ROwiu2-37" value="" style="endArrow=classic;html=1;rounded=0;" edge="1" parent="1">
          <mxGeometry width="50" height="50" relative="1" as="geometry">
            <mxPoint x="695" y="129.5" as="sourcePoint" />
            <mxPoint x="655" y="129.5" as="targetPoint" />
          </mxGeometry>
        </mxCell>
      </root>
    </mxGraphModel>
  </diagram>
</mxfile>
